{
  "asset": { "version": "2.0" },
  "scene": 0,
  "scenes": [{ "nodes": [0] }],
  "nodes": [{ "mesh": 0 }],
  "meshes": [{ "primitives": [{ "attributes": { "POSITION": 0 }, "indices": 1, "material": 0 }] }],
  "materials": [{ "doubleSided": true, "pbrMetallicRoughness": { "baseColorFactor": [0.95, 0.55, 0.2, 1], "metallicFactor": 0, "roughnessFactor": 1 } }],
  "buffers": [{ "uri": "triangle.bin", "byteLength": 42 }],
  "bufferViews": [{ "buffer": 0, "byteOffset": 0, "byteLength": 36, "target": 34962 }, { "buffer": 0, "byteOffset": 36, "byteLength": 6, "target": 34963 }],
  "accessors": [
    { "bufferView": 0, "componentType": 5126, "count": 3, "type": "VEC3", "min": [-0.7, -0.5, 0], "max": [0.7, 0.7, 0] },
    { "bufferView": 1, "componentType": 5123, "count": 3, "type": "SCALAR" }
  ]
}
